<svg width="36" height="37" viewBox="0 0 36 37" fill="none" xmlns="http://www.w3.org/2000/svg">
<path fill-rule="evenodd" clip-rule="evenodd" d="M0.432576 7.72064C1.98028 4.25017 5.40153 0.5 11.09 0.5C19.1436 0.5 23.6754 6.42804 23.6754 12.3398C23.6754 18.0234 20.1373 21.6432 17.6013 23.5061C16.0101 24.6738 14.981 25.5944 14.981 26.9902C14.981 30.4606 12.1463 32.8829 9.15405 33.5455C6.05863 34.2298 2.41473 33.1653 0.503173 29.3988C0.158444 28.6877 -0.0136597 27.9052 0.000846561 27.1151V9.87135C0.000846561 9.1816 0.112173 8.43754 0.432576 7.72064ZM8.12496 11.479C8.61642 9.99355 9.65637 8.83944 11.1389 8.83944C13.4333 8.83944 14.7828 10.6371 14.7828 12.6955C14.7828 13.9718 14.4841 14.7105 14.1474 15.202C13.7836 15.7288 13.2758 16.1253 12.5726 16.5733L12.2115 16.7987C11.6141 17.168 10.8348 17.6514 10.2347 18.238C9.76594 18.6891 9.39597 19.2327 9.14824 19.8343C8.90051 20.4359 8.78044 21.0824 8.79563 21.7329C8.79563 22.3656 8.62729 22.6996 8.50238 22.8625C8.39167 23.0129 8.22738 23.115 8.0435 23.1477C7.66608 23.2155 7.18276 23.0309 6.95739 22.4959C6.87038 22.2907 6.74381 22.1046 6.5849 21.9483C6.42599 21.792 6.23785 21.6685 6.03122 21.5849C5.8246 21.5013 5.60353 21.4593 5.38065 21.4611C5.15776 21.463 4.93743 21.5087 4.73222 21.5957C4.52701 21.6827 4.34095 21.8093 4.18465 21.9682C4.02836 22.1272 3.9049 22.3153 3.82131 22.522C3.73773 22.7286 3.69566 22.9497 3.69751 23.1726C3.69937 23.3955 3.7451 23.6159 3.8321 23.8211C4.21214 24.7488 4.89779 25.5187 5.77536 26.0032C6.65293 26.4877 7.66972 26.6577 8.65715 26.4851C9.62108 26.3086 10.5307 25.7926 11.1932 24.9345C11.853 24.0764 12.187 22.9766 12.187 21.7329C12.187 21.1897 12.3499 20.9236 12.616 20.6575C12.9174 20.3615 13.2786 20.1361 13.827 19.794L14.3972 19.4355C15.1928 18.9277 16.1812 18.2325 16.9415 17.1273C17.7289 15.9868 18.1769 14.553 18.1769 12.6955C18.1769 9.23591 15.7495 5.44501 11.1416 5.44501C7.50316 5.44501 5.59432 8.32349 4.90192 10.4145C4.83203 10.6261 4.80451 10.8495 4.82093 11.0717C4.83735 11.294 4.89738 11.5109 4.99761 11.71C5.09783 11.9091 5.23628 12.0865 5.40506 12.232C5.57383 12.3776 5.76962 12.4885 5.98125 12.5584C6.19287 12.6283 6.41619 12.6558 6.63846 12.6394C6.86072 12.623 7.07758 12.5629 7.27664 12.4627C7.4757 12.3625 7.65307 12.224 7.79863 12.0552C7.94418 11.8864 8.05507 11.6906 8.12496 11.479ZM33.9635 23.1124C34.5036 23.1124 35.0216 23.3269 35.4035 23.7089C35.7854 24.0908 36 24.6089 36 25.149C36 28.1595 34.8042 31.0467 32.6757 33.1754C30.5472 35.3041 27.6603 36.5 24.6501 36.5C24.11 36.5 23.5921 36.2854 23.2101 35.9035C22.8282 35.5215 22.6137 35.0035 22.6137 34.4633C22.6137 33.9232 22.8282 33.4052 23.2101 33.0232C23.5921 32.6413 24.11 32.4267 24.6501 32.4267C28.6688 32.4267 31.9271 29.168 31.9271 25.149C31.9271 24.6089 32.1416 24.0908 32.5235 23.7089C32.9055 23.3269 33.4234 23.1124 33.9635 23.1124ZM29.3639 22.7295C29.3639 22.1893 29.1493 21.6713 28.7674 21.2893C28.3855 20.9074 27.8675 20.6928 27.3274 20.6928C26.7873 20.6928 26.2693 20.9074 25.8874 21.2893C25.5055 21.6713 25.2909 22.1893 25.2909 22.7295C25.2909 24.3724 23.9605 25.703 22.3177 25.703C21.7776 25.703 21.2596 25.9176 20.8777 26.2995C20.4958 26.6815 20.2813 27.1995 20.2813 27.7396C20.2813 28.2798 20.4958 28.7978 20.8777 29.1798C21.2596 29.5617 21.7776 29.7763 22.3177 29.7763C24.1865 29.7763 25.9787 29.0339 27.3001 27.7123C28.6215 26.3908 29.3639 24.5984 29.3639 22.7295Z" fill="#006874"/>
</svg>
