<svg width="36" height="33" viewBox="0 0 36 33" fill="none" xmlns="http://www.w3.org/2000/svg">
<path d="M36 10.6588C36 22.6929 19.3195 32.4336 18.6091 32.8359C18.4219 32.9436 18.2126 33 18 33C17.7874 33 17.5781 32.9436 17.3909 32.8359C16.6805 32.4336 0 22.6929 0 10.6588C0.00297761 7.83286 1.05374 5.12361 2.92176 3.1254C4.78978 1.12718 7.32251 0.00318514 9.96429 0C13.283 0 16.1887 1.52661 18 4.10706C19.8112 1.52661 22.717 0 26.0357 0C28.6775 0.00318514 31.2102 1.12718 33.0782 3.1254C34.9463 5.12361 35.997 7.83286 36 10.6588Z" fill="#006874"/>
</svg>
