<svg width="36" height="37" viewBox="0 0 36 37" fill="none" xmlns="http://www.w3.org/2000/svg">
<path d="M18 5C18.3978 5 18.7793 5.15804 19.0606 5.43934C19.3419 5.72064 19.5 6.10218 19.5 6.5V14C19.5 14.5266 19.6386 15.0439 19.9019 15.5C20.1652 15.956 20.5439 16.3347 21 16.598V11.3855C21 9.5225 22.4925 8 24.3495 8C24.9075 8 25.4565 8.141 26.0325 8.4605L26.3025 8.636C28.845 10.481 30.4425 13.1885 31.962 18.146C32.636 20.35 32.982 22.88 33 25.736C33.024 29.0285 30.5145 31.772 27.2355 31.988L26.88 32C23.625 32 21 29.3195 21 26.03V19.811C19.9164 19.5307 18.9329 18.953 18.1605 18.143L18 17.966L17.8395 18.143C17.0675 18.9527 16.0845 19.5305 15.0015 19.811L15 26.03C15 29.3195 12.375 32 9.12148 32L8.71948 31.985C5.48698 31.772 2.97898 29.0285 3.00298 25.7375C3.02098 22.8795 3.36698 20.3495 4.04098 18.1475C5.55748 13.187 7.15498 10.4795 9.77398 8.585L10.056 8.4095C10.5448 8.14024 11.0939 7.99935 11.652 8C13.5075 8 15 9.5225 15 11.3855L15.0015 16.598C15.4572 16.3345 15.8357 15.9557 16.0987 15.4997C16.3617 15.0437 16.5001 14.5265 16.5 14V6.5C16.5 6.10218 16.658 5.72064 16.9393 5.43934C17.2206 5.15804 17.6022 5 18 5Z" fill="#006874"/>
</svg>
