<svg width="32" height="37" viewBox="0 0 32 37" fill="none" xmlns="http://www.w3.org/2000/svg">
<path d="M29.5912 25.925C27.3412 21.65 25.0912 22.325 22.6162 22.1C22.8412 22.775 22.8412 23.45 22.8412 24.35C26.4412 25.25 27.3412 29.525 27.3412 32V34.25H22.8412V32H25.0912C25.0912 32 25.0912 26.375 21.7162 26.375C18.3412 26.375 18.3412 31.775 18.3412 32H20.5912V34.25H16.0912V32C16.0912 29.525 16.9912 25.025 20.5912 24.35C20.5912 23 20.3662 21.875 20.1412 21.425C19.6912 21.2 19.2412 20.75 19.2412 20.075C19.2412 18.725 21.0412 19.175 22.3912 16.7C22.3912 16.7 24.4162 11.525 23.7412 7.025H21.4912C21.4912 6.575 21.7162 6.35 21.7162 5.9C21.7162 5.45 21.7162 5.225 21.4912 4.775H23.2912C22.6162 2.525 20.3662 0.5 16.0912 0.5C11.8162 0.5 9.56616 2.525 8.66616 5H10.4662C10.4662 5.45 10.2412 5.675 10.2412 6.125C10.2412 6.575 10.2412 6.8 10.4662 7.25H8.21616C7.76616 11.75 9.56616 16.925 9.56616 16.925C10.9162 19.175 12.7162 18.725 12.7162 20.3C12.7162 21.425 11.5912 21.875 10.2412 22.1C9.79116 22.55 9.34116 23.45 9.34116 25.25V27.95C10.6912 28.4 11.5912 29.75 11.5912 31.1C11.5912 32.675 10.0162 34.25 8.21616 34.25C6.41616 34.25 4.84116 32.675 4.84116 30.875C4.84116 29.3 5.74116 28.175 7.09116 27.725V25.025C7.09116 23.9 7.31616 23 7.54116 22.1C5.96616 22.325 4.16616 23 2.59116 25.925C1.24116 28.4 0.566162 36.5 0.566162 36.5H31.3912C31.6162 36.5 30.9412 28.4 29.5912 25.925ZM12.7162 6.125C12.7162 4.325 14.2912 2.75 16.0912 2.75C17.8912 2.75 19.4662 4.325 19.4662 6.125C19.4662 7.925 17.8912 9.5 16.0912 9.5C14.2912 9.5 12.7162 7.925 12.7162 6.125Z" fill="#006874"/>
</svg>
