<svg width="36" height="37" viewBox="0 0 36 37" fill="none" xmlns="http://www.w3.org/2000/svg">
<path d="M3.64397 29.3C4.84834 32.63 7.36492 36.5 18.0244 36.5C22.2667 36.5 27.138 36.374 30.6073 32.9C32.4049 31.1 36 27.5 36 16.7C36 5.9 32.4049 4.1 28.8098 4.1C26.3291 4.1 23.4171 4.1 21.6195 7.7V7.754C21.296 8.34148 20.8001 8.81532 20.199 9.11148C19.5978 9.40765 18.9203 9.51184 18.2581 9.41C16.2269 9.158 16.2269 8.366 16.2269 7.7V0.5H12.6318V7.7C12.6119 8.41454 12.7379 9.12562 13.0018 9.78976C13.2658 10.4539 13.6623 11.0571 14.1671 11.5626C14.6719 12.068 15.2743 12.4651 15.9375 12.7294C16.6007 12.9938 17.3109 13.1199 18.0244 13.1C19.822 13.1 19.822 16.304 19.822 18.5C19.822 21.902 18.9232 24.368 16.2269 25.7C12.0745 27.77 7.94013 27.5 6.53804 24.746C6.39366 24.3121 6.1416 23.9221 5.80549 23.6125C5.46938 23.3029 5.06025 23.0838 4.61646 22.9759C4.17268 22.8679 3.70878 22.8746 3.26829 22.9953C2.82779 23.116 2.42513 23.3468 2.09807 23.666C1.33693 24.3767 0.754493 25.2576 0.398343 26.2368C0.0421936 27.216 -0.0775629 28.2656 0.0488584 29.3V36.5H3.64397V29.3Z" fill="#006874"/>
</svg>
