<svg width="36" height="37" viewBox="0 0 36 37" fill="none" xmlns="http://www.w3.org/2000/svg">
<path d="M8.49907 0.684579C9.73653 0.410349 11.0149 0.442039 12.2396 0.777305C13.4642 1.11257 14.6038 1.74283 15.574 2.62143L15.6365 2.67163L15.6909 2.73068C17.0358 4.20989 17.6498 4.50219 17.9813 4.51695C18.253 4.52876 18.7556 4.36047 19.9456 3.07022L19.9837 3.02593L20.0272 2.98459C21.277 1.83606 23.0321 0.761345 25.2247 0.634386C27.439 0.510381 29.9006 1.36366 32.5252 3.67548C35.2829 6.10541 36.1062 8.92507 35.9893 11.4849C35.8807 13.9444 34.9107 16.0407 34.3238 17.1833L34.3211 17.1892C34.0041 17.7974 33.7234 18.323 33.4789 18.7658C33.3702 18.9568 33.2733 19.1339 33.1881 19.2973C32.8893 19.8583 32.6774 20.2805 32.5089 20.7234C32.1829 21.5855 31.9601 22.6543 31.7672 25.0458C31.3596 30.0947 29.811 33.9654 27.1103 35.8403C26.3686 36.354 25.5127 36.6404 24.6243 36.4308C23.7413 36.227 23.1 35.6011 22.6517 34.8955C21.7959 33.5521 21.3639 31.4794 21.2009 29.2266C21.0107 26.9591 20.8042 24.5085 20.1032 22.7842C19.7663 21.9516 19.3724 21.4467 18.9485 21.1839C18.5573 20.9418 17.9568 20.7942 16.9488 21.0747C16.6092 21.1898 15.7262 21.7006 15.1122 24.9573V24.9661C14.8812 26.153 14.7698 27.4167 14.672 28.6922L14.6421 29.1085C14.5606 30.2128 14.4737 31.3495 14.3052 32.3268C14.1232 33.3838 13.7917 34.6061 12.9766 35.4358C12.0447 36.3835 10.8139 36.5075 9.5288 36.1355L9.47174 36.1178L9.41469 36.0971C7.19764 35.2202 5.85274 33.0531 5.07026 30.9686C4.35651 29.0192 3.97268 26.9457 3.93728 24.848V24.7063C3.93728 22.9643 3.93728 21.801 3.54875 20.6436C3.20913 19.6309 2.53261 18.5857 1.32084 16.7994L1.30454 16.7788C0.15798 15.0191 -0.048509 12.7191 0.00854727 11.1395C0.133528 7.92417 1.58439 5.72453 3.00808 4.02979L3.01351 4.02093C4.47845 2.31621 6.39587 1.15003 8.49907 0.684579ZM25.0182 6.87897C24.6579 6.87897 24.3124 7.03451 24.0576 7.31136C23.8029 7.58821 23.6597 7.9637 23.6597 8.35523C23.6597 8.74676 23.8029 9.12226 24.0576 9.39911C24.3124 9.67596 24.6579 9.83149 25.0182 9.83149C25.6757 9.83149 26.2191 10.0441 26.6131 10.422C26.9989 10.797 27.3603 11.4465 27.4635 12.5714C27.4995 12.961 27.6765 13.3191 27.9555 13.5669C28.2344 13.8146 28.5925 13.9318 28.951 13.8927C29.3095 13.8535 29.639 13.6612 29.867 13.3581C30.095 13.0549 30.2029 12.6658 30.1669 12.2762C30.0093 10.5549 29.4007 9.17013 28.4199 8.21942C27.4771 7.33167 26.2655 6.85422 25.0182 6.87897Z" fill="#006874"/>
</svg>
